<svg xmlns="http://www.w3.org/2000/svg" xmlns:xlink="http://www.w3.org/1999/xlink" width="78.232mm" height="29.591mm" viewBox="4059 2905 308 116.5"><title></title><style type="text/css">
*[layerid="1"] {stroke:#FF0000;fill:#FF0000;}
*[layerid="2"] {stroke:#0000FF;fill:#0000FF;}
*[layerid="3"] {stroke:#FFCC00;fill:#FFCC00;}
*[layerid="4"] {stroke:#66CC33;fill:#66CC33;}
*[layerid="5"] {stroke:#808080;fill:#808080;}
*[layerid="6"] {stroke:#800000;fill:#800000;}
*[layerid="7"] {stroke:#800080;fill:#800080;stroke-opacity:0.7;fill-opacity:0.7;}
*[layerid="8"] {stroke:#AA00FF;fill:#AA00FF;stroke-opacity:0.7;fill-opacity:0.7;}
*[layerid="9"] {stroke:#6464FF;fill:#6464FF;}
*[layerid="10"] {stroke:#FF00FF;fill:#FF00FF;}
*[layerid="11"] {stroke:#C0C0C0;fill:#C0C0C0;}
*[layerid="12"] {stroke:#FFFFFF;fill:#FFFFFF;}
*[layerid="13"] {stroke:#33CC99;fill:#33CC99;}
*[layerid="14"] {stroke:#5555FF;fill:#5555FF;}
*[layerid="15"] {stroke:#F022F0;fill:#F022F0;}
*[layerid="19"] {stroke:#66CCFF;fill:#66CCFF;}
*[layerid="21"] {stroke:#999966;fill:#999966;}
*[layerid="22"] {stroke:#008000;fill:#008000;}
*[layerid="23"] {stroke:#00FF00;fill:#00FF00;}
*[layerid="24"] {stroke:#BC8E00;fill:#BC8E00;}
*[layerid="25"] {stroke:#70DBFA;fill:#70DBFA;}
*[layerid="26"] {stroke:#00CC66;fill:#00CC66;}
*[layerid="27"] {stroke:#9966FF;fill:#9966FF;}
*[layerid="28"] {stroke:#800080;fill:#800080;}
*[layerid="29"] {stroke:#008080;fill:#008080;}
*[layerid="30"] {stroke:#15935F;fill:#15935F;}
*[layerid="31"] {stroke:#000080;fill:#000080;}
*[layerid="32"] {stroke:#00B400;fill:#00B400;}
*[layerid="33"] {stroke:#2E4756;fill:#2E4756;}
*[layerid="34"] {stroke:#99842F;fill:#99842F;}
*[layerid="35"] {stroke:#FFFFAA;fill:#FFFFAA;}
*[layerid="36"] {stroke:#99842F;fill:#99842F;}
*[layerid="37"] {stroke:#2E4756;fill:#2E4756;}
*[layerid="38"] {stroke:#3535FF;fill:#3535FF;}
*[layerid="39"] {stroke:#8000BC;fill:#8000BC;}
*[layerid="40"] {stroke:#43AE5F;fill:#43AE5F;}
*[layerid="41"] {stroke:#C3ECCE;fill:#C3ECCE;}
*[layerid="42"] {stroke:#728978;fill:#728978;}
*[layerid="43"] {stroke:#39503F;fill:#39503F;}
*[layerid="44"] {stroke:#0C715D;fill:#0C715D;}
*[layerid="45"] {stroke:#5A8A80;fill:#5A8A80;}
*[layerid="46"] {stroke:#2B937E;fill:#2B937E;}
*[layerid="47"] {stroke:#23999D;fill:#23999D;}
*[layerid="48"] {stroke:#45B4E3;fill:#45B4E3;}
*[layerid="49"] {stroke:#215DA1;fill:#215DA1;}
*[layerid="50"] {stroke:#4564D7;fill:#4564D7;}
*[layerid="51"] {stroke:#6969E9;fill:#6969E9;}
*[layerid="52"] {stroke:#9069E9;fill:#9069E9;}
*[layerid="99"] {stroke:#00CCCC;fill:#00CCCC;}
*[layerid="100"] {stroke:#CC9999;fill:#CC9999;}
*[layerid="Hole"] {stroke:#222222;fill:#222222;}
*[layerid="DRCError"] {stroke:#FAD609;fill:#FAD609;}
*[fill="none"] {fill: none;}
*[stroke="none"] {stroke: none;}
path, polyline, polygon, line {stroke-linecap:round;}
g[c_partid="part_pad"][layerid="1"] ellipse:not([c_etype="pad_outer"]) {fill:#FF0000;}
g[c_partid="part_pad"][layerid="1"] polygon:not([c_etype="pad_outer"]) {fill:#FF0000;}
g[c_partid="part_pad"][layerid="1"] polyline:not([c_etype="pad_outer"]) {stroke:#FF0000;}
g[c_partid="part_pad"][layerid="2"] ellipse:not([c_etype="pad_outer"]) {fill:#0000FF;}
g[c_partid="part_pad"][layerid="2"] polygon:not([c_etype="pad_outer"]) {fill:#0000FF;}
g[c_partid="part_pad"][layerid="2"] polyline:not([c_etype="pad_outer"]) {stroke:#0000FF;}
g[c_partid="part_pad"][layerid="11"] ellipse:not([c_etype="pad_outer"]) {fill:#C0C0C0;}
g[c_partid="part_pad"][layerid="11"] polygon:not([c_etype="pad_outer"]) {fill:#C0C0C0;}
g[c_partid="part_pad"][layerid="11"] polyline:not([c_etype="pad_outer"]) {stroke:#C0C0C0;}
g[c_partid="part_pad"][layerid="11"] circle {fill:#222222;}
g[c_partid="part_pad"][layerid="11"] > polyline:nth-of-type(2) {stroke:#222222;}
g[c_partid="part_pad"][layerid="11"][c_shape="ELLIPSE"]  polyline:nth-last-of-type(1) {stroke:#222222;}
g[c_partid="part_pad"][layerid="11"][c_shape="RECT"]  polyline:nth-last-of-type(1) {stroke:#222222;}
g[c_partid="part_pad"][layerid="11"][c_shape="POLYGON"]  polyline:nth-last-of-type(1) {stroke:#222222;}
g[c_partid="part_via"] > * + circle, #gCurParts g[c_partid="part_via"] > * + circle {fill:#222222;}
g[c_partid="part_pad"] > polygon[c_etype="pad_outer"], #gCurParts g[c_partid="part_pad"] > polygon[c_etype="pad_outer"] {stroke-linejoin: miter;stroke-miterlimit: 100;}
g[c_partid="part_hole"] > circle {fill: #222222;}path, polyline, polygon {stroke-linejoin:round;}
rect, circle, ellipse, polyline, line, polygon, path {shape-rendering:crispEdges;}
</style>
<rect x="4059" y="2905" width="308" height="116.5" fill="#000000" stroke="none"/><polyline points="4089 2956 4128.374 2956 4136.374 2948" stroke-width="1"  stroke-linecap="round" fill="none" layerid="1" net="S$188" id="gge187" locked="0" /><polyline points="4089 2968 4189 2968 4193 2972" stroke-width="1"  stroke-linecap="round" fill="none" layerid="1" net="S$190" id="gge189" locked="0" /><polyline points="4170.626 2948 4180.126 2938.5 4251.5 2938.5" stroke-width="1"  stroke-linecap="round" fill="none" layerid="1" net="S$192" id="gge272" locked="0" /><polyline points="4193 2962 4193 2953.3703 4207.8703 2938.5" stroke-width="1"  stroke-linecap="round" fill="none" layerid="1" net="S$192" id="gge273" locked="0" /><polyline points="4193 2972 4209.5 2988.5 4251.5 2988.5" stroke-width="1"  stroke-linecap="round" fill="none" layerid="1" net="S$190" id="gge274" locked="0" /><g c_partid="part_pad" c_etype="pinpart" c_origin="4089,2956" layerid="11" number="1" net="S$188" plated ="Y"  id="gge36" locked="0" c_rotation="0" c_width="6" c_height="6" title="S$188" c_shape="ELLIPSE" pasteexpansion="0" solderexpansion="0.4"><ellipse c_etype="pad_shell" cx="4089" cy="2956" rx="3" ry="3" layerid="11" stroke-width="0"/><circle c_etype="pad_hole" cx="4089" cy="2956" r="1.8" layerid="11" stroke-width="0"/></g><g c_partid="part_pad" c_etype="pinpart" c_origin="4089,2968" layerid="11" number="2" net="S$190" plated ="Y"  id="gge41" locked="0" c_rotation="0" c_width="6" c_height="6" title="S$190" c_shape="ELLIPSE" pasteexpansion="0" solderexpansion="0.4"><ellipse c_etype="pad_shell" cx="4089" cy="2968" rx="3" ry="3" layerid="11" stroke-width="0"/><circle c_etype="pad_hole" cx="4089" cy="2968" r="1.8" layerid="11" stroke-width="0"/></g><g c_partid="part_pad" c_etype="pinpart" c_origin="4136.374,2948" layerid="11" number="1" net="S$188" plated ="Y"  id="gge20" locked="0" c_rotation="180" c_width="7.0866" c_height="7.0866" title="S$188" c_shape="ELLIPSE" pasteexpansion="0" solderexpansion="0.4"><ellipse c_etype="pad_shell" cx="4136.374" cy="2948" rx="3.5433" ry="3.5433" layerid="11" stroke-width="0"/><circle c_etype="pad_hole" cx="4136.3738" cy="2948" r="1.9685" layerid="11" stroke-width="0"/></g><g c_partid="part_pad" c_etype="pinpart" c_origin="4170.626,2948" layerid="11" number="2" net="S$192" plated ="Y"  id="gge30" locked="0" c_rotation="180" c_width="7.0866" c_height="7.0866" title="S$192" c_shape="ELLIPSE" pasteexpansion="0" solderexpansion="0.4"><ellipse c_etype="pad_shell" cx="4170.626" cy="2948" rx="3.5433" ry="3.5433" layerid="11" stroke-width="0"/><circle c_etype="pad_hole" cx="4170.6262" cy="2948" r="1.9685" layerid="11" stroke-width="0"/></g><g c_partid="part_pad" c_etype="pinpart" c_origin="4193,2962" layerid="11" number="1" net="S$192" plated ="Y"  id="gge60" locked="0" c_rotation="270" c_width="6.2992" c_height="6.2992" title="S$192" c_shape="ELLIPSE" pasteexpansion="0" solderexpansion="0.4"><ellipse c_etype="pad_shell" cx="4193" cy="2962" rx="3.1496" ry="3.1496" layerid="11" stroke-width="0"/><circle c_etype="pad_hole" cx="4193" cy="2962" r="1.9685" layerid="11" stroke-width="0"/></g><g c_partid="part_pad" c_etype="pinpart" c_origin="4193,2972" layerid="11" number="2" net="S$190" plated ="Y"  id="gge65" locked="0" c_rotation="270" c_width="6.2992" c_height="6.2992" title="S$190" c_shape="ELLIPSE" pasteexpansion="0" solderexpansion="0.4"><ellipse c_etype="pad_shell" cx="4193" cy="2972" rx="3.1496" ry="3.1496" layerid="11" stroke-width="0"/><circle c_etype="pad_hole" cx="4193" cy="2972" r="1.9685" layerid="11" stroke-width="0"/></g><g c_partid="part_pad" c_etype="pinpart" c_origin="4251.5,2988.5" layerid="11" number="6" net="S$190" plated ="Y"  id="gge224" locked="0" c_rotation="180" c_width="11.811" c_height="7.874" title="S$190" c_shape="RECT" pasteexpansion="0" solderexpansion="0.4"><polygon  c_etype="pad_shell" points="4257.4055 2992.437 4245.5945 2992.437 4245.5945 2984.563 4257.4055 2984.563" layerid="11" stroke-width="0" /><circle c_etype="pad_hole" cx="4251.5" cy="2988.5" r="1.8" layerid="11" stroke-width="0"/></g><g c_partid="part_pad" c_etype="pinpart" c_origin="4251.5,2938.5" layerid="11" number="5" net="S$192" plated ="Y"  id="gge229" locked="0" c_rotation="180" c_width="11.811" c_height="7.874" title="S$192" c_shape="RECT" pasteexpansion="0" solderexpansion="0.4"><polygon  c_etype="pad_shell" points="4257.4055 2942.437 4245.5945 2942.437 4245.5945 2934.563 4257.4055 2934.563" layerid="11" stroke-width="0" /><circle c_etype="pad_hole" cx="4251.5" cy="2938.5" r="1.8" layerid="11" stroke-width="0"/></g><g c_partid="part_pad" c_etype="pinpart" c_origin="4321.5,2978.5" layerid="11" number="1" net="" plated ="Y"  id="gge234" locked="0" c_rotation="180" c_width="6" c_height="6" title="" c_shape="ELLIPSE" pasteexpansion="0" solderexpansion="0.4"><ellipse c_etype="pad_shell" cx="4321.5" cy="2978.5" rx="3" ry="3" layerid="11" stroke-width="0"/><circle c_etype="pad_hole" cx="4321.5" cy="2978.5" r="1.8" layerid="11" stroke-width="0"/></g><g c_partid="part_pad" c_etype="pinpart" c_origin="4321.5,2968.5" layerid="11" number="2" net="" plated ="Y"  id="gge239" locked="0" c_rotation="180" c_width="6" c_height="6" title="" c_shape="ELLIPSE" pasteexpansion="0" solderexpansion="0.4"><ellipse c_etype="pad_shell" cx="4321.5" cy="2968.5" rx="3" ry="3" layerid="11" stroke-width="0"/><circle c_etype="pad_hole" cx="4321.5" cy="2968.5" r="1.8" layerid="11" stroke-width="0"/></g><g c_partid="part_pad" c_etype="pinpart" c_origin="4321.5,2958.5" layerid="11" number="3" net="" plated ="Y"  id="gge244" locked="0" c_rotation="180" c_width="6" c_height="6" title="" c_shape="ELLIPSE" pasteexpansion="0" solderexpansion="0.4"><ellipse c_etype="pad_shell" cx="4321.5" cy="2958.5" rx="3" ry="3" layerid="11" stroke-width="0"/><circle c_etype="pad_hole" cx="4321.5" cy="2958.5" r="1.8" layerid="11" stroke-width="0"/></g><g c_partid="part_pad" c_etype="pinpart" c_origin="4321.5,2948.5" layerid="11" number="4" net="" plated ="Y"  id="gge249" locked="0" c_rotation="180" c_width="6" c_height="6" title="" c_shape="ELLIPSE" pasteexpansion="0" solderexpansion="0.4"><ellipse c_etype="pad_shell" cx="4321.5" cy="2948.5" rx="3" ry="3" layerid="11" stroke-width="0"/><circle c_etype="pad_hole" cx="4321.5" cy="2948.5" r="1.8" layerid="11" stroke-width="0"/></g><g c_partid="part_pad" c_etype="pinpart" c_origin="4331.5,2988.5" layerid="11" number="7" net="" plated ="Y"  id="gge254" locked="0" c_rotation="180" c_width="11.811" c_height="7.874" title="" c_shape="RECT" pasteexpansion="0" solderexpansion="0.4"><polygon  c_etype="pad_shell" points="4337.4055 2992.437 4325.5945 2992.437 4325.5945 2984.563 4337.4055 2984.563" layerid="11" stroke-width="0" /><circle c_etype="pad_hole" cx="4331.5" cy="2988.5" r="1.8" layerid="11" stroke-width="0"/></g><g c_partid="part_pad" c_etype="pinpart" c_origin="4331.5,2938.5" layerid="11" number="8" net="" plated ="Y"  id="gge259" locked="0" c_rotation="180" c_width="11.811" c_height="7.874" title="" c_shape="RECT" pasteexpansion="0" solderexpansion="0.4"><polygon  c_etype="pad_shell" points="4337.4055 2942.437 4325.5945 2942.437 4325.5945 2934.563 4337.4055 2934.563" layerid="11" stroke-width="0" /><circle c_etype="pad_hole" cx="4331.5" cy="2938.5" r="1.8" layerid="11" stroke-width="0"/></g><polyline points="4159.9596 2953.5118 4159.9596 2942.4882" stroke-width="1"  stroke-linecap="round" fill="none" layerid="3" net="" id="gge13" locked="0" /><polyline points="4163.7362 2953.5118 4163.7362 2942.4882" stroke-width="1"  stroke-linecap="round" fill="none" layerid="3" net="" id="gge14" locked="0" /><polyline points="4163.7362 2942.4882 4143.2638 2942.4882" stroke-width="1"  stroke-linecap="round" fill="none" layerid="3" net="" id="gge15" locked="0" /><polyline points="4143.2638 2953.5118 4143.2638 2942.4882" stroke-width="1"  stroke-linecap="round" fill="none" layerid="3" net="" id="gge16" locked="0" /><polyline points="4163.7362 2953.5118 4143.2638 2953.5118" stroke-width="1"  stroke-linecap="round" fill="none" layerid="3" net="" id="gge17" locked="0" /><polyline points="4201 2962 4197 2962" stroke-width="1"  stroke-linecap="round" fill="none" layerid="3" net="" id="gge54" locked="0" /><polyline points="4199 2960 4199 2964" stroke-width="1"  stroke-linecap="round" fill="none" layerid="3" net="" id="gge55" locked="0" /><polyline points="4341 2998.5 4241.543 2998.5 4241.543 2928.5 4341 2928.5 4341 2998.5" stroke-width="1"  stroke-linecap="round" fill="none" layerid="3" net="" id="gge223" locked="0" /><g c_partid="part_pcbtext" c_etype="pinpart" c_origin="4169.5,2988.5" c_rotation="0" c_mirror="0" id="gge276" locked="0" layerid="3" c_shapetype="group" ><path c_fontsize="4.5" c_fontfamily="" c_text="47uf 25V" d="M 4171.55 2983.96 L 4169.5 2986.82 L 4172.57 2986.82 M 4171.55 2983.96 L 4171.55 2988.25 M 4176.78 2983.96 L 4174.74 2988.25 M 4173.92 2983.96 L 4176.78 2983.96 M 4178.13 2985.39 L 4178.13 2987.44 L 4178.34 2988.05 L 4178.75 2988.25 L 4179.36 2988.25 L 4179.77 2988.05 L 4180.38 2987.44 M 4180.38 2985.39 L 4180.38 2988.25 M 4183.37 2983.96 L 4182.96 2983.96 L 4182.55 2984.16 L 4182.35 2984.78 L 4182.35 2988.25 M 4181.73 2985.39 L 4183.16 2985.39 M 4188.07 2984.98 L 4188.07 2984.78 L 4188.28 2984.37 L 4188.48 2984.16 L 4188.89 2983.96 L 4189.71 2983.96 L 4190.12 2984.16 L 4190.32 2984.37 L 4190.53 2984.78 L 4190.53 2985.19 L 4190.32 2985.6 L 4189.91 2986.21 L 4187.87 2988.25 L 4190.73 2988.25 M 4194.54 2983.96 L 4192.49 2983.96 L 4192.29 2985.8 L 4192.49 2985.6 L 4193.1 2985.39 L 4193.72 2985.39 L 4194.33 2985.6 L 4194.74 2986 L 4194.95 2986.62 L 4194.95 2987.03 L 4194.74 2987.64 L 4194.33 2988.05 L 4193.72 2988.25 L 4193.1 2988.25 L 4192.49 2988.05 L 4192.29 2987.85 L 4192.08 2987.44 M 4196.3 2983.96 L 4197.93 2988.25 M 4199.57 2983.96 L 4197.93 2988.25" fill="none"  stroke-width="0.5984"  /></g><g c_partid="part_pcbtext" c_etype="pinpart" c_origin="4087.5,2951" c_rotation="0" c_mirror="0" id="gge279" locked="0" layerid="3" c_shapetype="group" ><path c_fontsize="4.5" c_fontfamily="" c_text="-ve" d="M 4087.5 2948.91 L 4091.18 2948.91 M 4092.53 2947.89 L 4093.76 2950.75 M 4094.99 2947.89 L 4093.76 2950.75 M 4096.34 2949.12 L 4098.79 2949.12 L 4098.79 2948.71 L 4098.59 2948.3 L 4098.38 2948.1 L 4097.97 2947.89 L 4097.36 2947.89 L 4096.95 2948.1 L 4096.54 2948.5 L 4096.34 2949.12 L 4096.34 2949.53 L 4096.54 2950.14 L 4096.95 2950.55 L 4097.36 2950.75 L 4097.97 2950.75 L 4098.38 2950.55 L 4098.79 2950.14" fill="none"  stroke-width="0.5984"  /></g><g c_partid="part_pcbtext" c_etype="pinpart" c_origin="4086,2978.5" c_rotation="0" c_mirror="0" id="gge282" locked="0" layerid="3" c_shapetype="group" ><path c_fontsize="4.5" c_fontfamily="" c_text="+ve" d="M 4087.84 2974.57 L 4087.84 2978.25 M 4086 2976.41 L 4089.68 2976.41 M 4091.03 2975.39 L 4092.26 2978.25 M 4093.49 2975.39 L 4092.26 2978.25 M 4094.84 2976.62 L 4097.29 2976.62 L 4097.29 2976.21 L 4097.09 2975.8 L 4096.88 2975.6 L 4096.47 2975.39 L 4095.86 2975.39 L 4095.45 2975.6 L 4095.04 2976 L 4094.84 2976.62 L 4094.84 2977.03 L 4095.04 2977.64 L 4095.45 2978.05 L 4095.86 2978.25 L 4096.47 2978.25 L 4096.88 2978.05 L 4097.29 2977.64" fill="none"  stroke-width="0.5984"  /></g><g c_partid="part_pcbtext" c_etype="" c_origin="4152.89,2933.5" c_rotation="0" c_mirror="0" id="gge9" locked="0" layerid="3" c_shapetype="group" display="none"><path c_fontsize="4.5" c_fontfamily="" c_text="DO-41_BD2.4-L4.7-P8.70-D0.9-FD" d="M 4152.89 2928.96 L 4152.89 2933.25 M 4152.89 2928.96 L 4154.32 2928.96 L 4154.94 2929.16 L 4155.34 2929.57 L 4155.55 2929.98 L 4155.75 2930.6 L 4155.75 2931.62 L 4155.55 2932.23 L 4155.34 2932.64 L 4154.94 2933.05 L 4154.32 2933.25 L 4152.89 2933.25 M 4158.33 2928.96 L 4157.92 2929.16 L 4157.51 2929.57 L 4157.31 2929.98 L 4157.1 2930.6 L 4157.1 2931.62 L 4157.31 2932.23 L 4157.51 2932.64 L 4157.92 2933.05 L 4158.33 2933.25 L 4159.15 2933.25 L 4159.56 2933.05 L 4159.97 2932.64 L 4160.17 2932.23 L 4160.38 2931.62 L 4160.38 2930.6 L 4160.17 2929.98 L 4159.97 2929.57 L 4159.56 2929.16 L 4159.15 2928.96 L 4158.33 2928.96 M 4161.73 2931.41 L 4165.41 2931.41 M 4168.8 2928.96 L 4166.76 2931.82 L 4169.83 2931.82 M 4168.8 2928.96 L 4168.8 2933.25 M 4171.18 2929.78 L 4171.59 2929.57 L 4172.2 2928.96 L 4172.2 2933.25 M 4173.55 2934.69 L 4177.23 2934.69 M 4178.58 2928.96 L 4178.58 2933.25 M 4178.58 2928.96 L 4180.42 2928.96 L 4181.04 2929.16 L 4181.24 2929.37 L 4181.44 2929.78 L 4181.44 2930.19 L 4181.24 2930.6 L 4181.04 2930.8 L 4180.42 2931 M 4178.58 2931 L 4180.42 2931 L 4181.04 2931.21 L 4181.24 2931.41 L 4181.44 2931.82 L 4181.44 2932.44 L 4181.24 2932.85 L 4181.04 2933.05 L 4180.42 2933.25 L 4178.58 2933.25 M 4182.79 2928.96 L 4182.79 2933.25 M 4182.79 2928.96 L 4184.23 2928.96 L 4184.84 2929.16 L 4185.25 2929.57 L 4185.45 2929.98 L 4185.66 2930.6 L 4185.66 2931.62 L 4185.45 2932.23 L 4185.25 2932.64 L 4184.84 2933.05 L 4184.23 2933.25 L 4182.79 2933.25 M 4187.21 2929.98 L 4187.21 2929.78 L 4187.42 2929.37 L 4187.62 2929.16 L 4188.03 2928.96 L 4188.85 2928.96 L 4189.26 2929.16 L 4189.46 2929.37 L 4189.67 2929.78 L 4189.67 2930.19 L 4189.46 2930.6 L 4189.05 2931.21 L 4187.01 2933.25 L 4189.87 2933.25 M 4191.43 2932.23 L 4191.22 2932.44 L 4191.43 2932.64 L 4191.63 2932.44 L 4191.43 2932.23 M 4195.03 2928.96 L 4192.98 2931.82 L 4196.05 2931.82 M 4195.03 2928.96 L 4195.03 2933.25 M 4197.4 2931.41 L 4201.08 2931.41 M 4202.43 2928.96 L 4202.43 2933.25 M 4202.43 2933.25 L 4204.89 2933.25 M 4208.28 2928.96 L 4206.24 2931.82 L 4209.3 2931.82 M 4208.28 2928.96 L 4208.28 2933.25 M 4210.86 2932.23 L 4210.65 2932.44 L 4210.86 2932.64 L 4211.06 2932.44 L 4210.86 2932.23 M 4215.28 2928.96 L 4213.23 2933.25 M 4212.41 2928.96 L 4215.28 2928.96 M 4216.63 2931.41 L 4220.31 2931.41 M 4221.66 2928.96 L 4221.66 2933.25 M 4221.66 2928.96 L 4223.5 2928.96 L 4224.11 2929.16 L 4224.32 2929.37 L 4224.52 2929.78 L 4224.52 2930.39 L 4224.32 2930.8 L 4224.11 2931 L 4223.5 2931.21 L 4221.66 2931.21 M 4226.89 2928.96 L 4226.28 2929.16 L 4226.08 2929.57 L 4226.08 2929.98 L 4226.28 2930.39 L 4226.69 2930.6 L 4227.51 2930.8 L 4228.12 2931 L 4228.53 2931.41 L 4228.74 2931.82 L 4228.74 2932.44 L 4228.53 2932.85 L 4228.33 2933.05 L 4227.71 2933.25 L 4226.89 2933.25 L 4226.28 2933.05 L 4226.08 2932.85 L 4225.87 2932.44 L 4225.87 2931.82 L 4226.08 2931.41 L 4226.49 2931 L 4227.1 2930.8 L 4227.92 2930.6 L 4228.33 2930.39 L 4228.53 2929.98 L 4228.53 2929.57 L 4228.33 2929.16 L 4227.71 2928.96 L 4226.89 2928.96 M 4230.29 2932.23 L 4230.09 2932.44 L 4230.29 2932.64 L 4230.49 2932.44 L 4230.29 2932.23 M 4234.71 2928.96 L 4232.66 2933.25 M 4231.84 2928.96 L 4234.71 2928.96 M 4237.29 2928.96 L 4236.67 2929.16 L 4236.26 2929.78 L 4236.06 2930.8 L 4236.06 2931.41 L 4236.26 2932.44 L 4236.67 2933.05 L 4237.29 2933.25 L 4237.69 2933.25 L 4238.31 2933.05 L 4238.72 2932.44 L 4238.92 2931.41 L 4238.92 2930.8 L 4238.72 2929.78 L 4238.31 2929.16 L 4237.69 2928.96 L 4237.29 2928.96 M 4240.27 2931.41 L 4243.95 2931.41 M 4245.3 2928.96 L 4245.3 2933.25 M 4245.3 2928.96 L 4246.74 2928.96 L 4247.35 2929.16 L 4247.76 2929.57 L 4247.96 2929.98 L 4248.17 2930.6 L 4248.17 2931.62 L 4247.96 2932.23 L 4247.76 2932.64 L 4247.35 2933.05 L 4246.74 2933.25 L 4245.3 2933.25 M 4250.74 2928.96 L 4250.13 2929.16 L 4249.72 2929.78 L 4249.52 2930.8 L 4249.52 2931.41 L 4249.72 2932.44 L 4250.13 2933.05 L 4250.74 2933.25 L 4251.15 2933.25 L 4251.77 2933.05 L 4252.18 2932.44 L 4252.38 2931.41 L 4252.38 2930.8 L 4252.18 2929.78 L 4251.77 2929.16 L 4251.15 2928.96 L 4250.74 2928.96 M 4253.94 2932.23 L 4253.73 2932.44 L 4253.94 2932.64 L 4254.14 2932.44 L 4253.94 2932.23 M 4258.15 2930.39 L 4257.94 2931 L 4257.54 2931.41 L 4256.92 2931.62 L 4256.72 2931.62 L 4256.1 2931.41 L 4255.69 2931 L 4255.49 2930.39 L 4255.49 2930.19 L 4255.69 2929.57 L 4256.1 2929.16 L 4256.72 2928.96 L 4256.92 2928.96 L 4257.54 2929.16 L 4257.94 2929.57 L 4258.15 2930.39 L 4258.15 2931.41 L 4257.94 2932.44 L 4257.54 2933.05 L 4256.92 2933.25 L 4256.51 2933.25 L 4255.9 2933.05 L 4255.69 2932.64 M 4259.5 2931.41 L 4263.18 2931.41 M 4264.53 2928.96 L 4264.53 2933.25 M 4264.53 2928.96 L 4267.19 2928.96 M 4264.53 2931 L 4266.17 2931 M 4268.54 2928.96 L 4268.54 2933.25 M 4268.54 2928.96 L 4269.97 2928.96 L 4270.59 2929.16 L 4270.99 2929.57 L 4271.2 2929.98 L 4271.4 2930.6 L 4271.4 2931.62 L 4271.2 2932.23 L 4270.99 2932.64 L 4270.59 2933.05 L 4269.97 2933.25 L 4268.54 2933.25" fill="none"  stroke-width="0.6" c_note="note_name" /></g><g c_partid="part_pcbtext" c_etype="" c_origin="4152.89,2940.5" c_rotation="0" c_mirror="0" id="gge11" locked="0" layerid="3" c_shapetype="group" ><path c_fontsize="4.5" c_fontfamily="" c_text="1N5817" d="M 4152.89 2936.78L4153.3 2936.57 L4153.91 2935.96 L4153.91 2940.25 M 4155.26 2935.96L4155.26 2940.25 M 4155.26 2935.96L4158.13 2940.25 M 4158.13 2935.96L4158.13 2940.25 M 4161.93 2935.96L4159.89 2935.96 L4159.68 2937.8 L4159.89 2937.6 L4160.5 2937.39 L4161.11 2937.39 L4161.73 2937.6 L4162.14 2938 L4162.34 2938.62 L4162.34 2939.03 L4162.14 2939.64 L4161.73 2940.05 L4161.11 2940.25 L4160.5 2940.25 L4159.89 2940.05 L4159.68 2939.85 L4159.48 2939.44 M 4164.71 2935.96L4164.1 2936.16 L4163.89 2936.57 L4163.89 2936.98 L4164.1 2937.39 L4164.51 2937.6 L4165.33 2937.8 L4165.94 2938 L4166.35 2938.41 L4166.55 2938.82 L4166.55 2939.44 L4166.35 2939.85 L4166.14 2940.05 L4165.53 2940.25 L4164.71 2940.25 L4164.1 2940.05 L4163.89 2939.85 L4163.69 2939.44 L4163.69 2938.82 L4163.89 2938.41 L4164.3 2938 L4164.92 2937.8 L4165.74 2937.6 L4166.14 2937.39 L4166.35 2936.98 L4166.35 2936.57 L4166.14 2936.16 L4165.53 2935.96 L4164.71 2935.96 M 4167.9 2936.78L4168.31 2936.57 L4168.93 2935.96 L4168.93 2940.25 M 4173.14 2935.96L4171.09 2940.25 M 4170.28 2935.96L4173.14 2935.96 " fill="none"  stroke-width="0.6" c_note="note_pre" /></g><g c_partid="part_pcbtext" c_etype="" c_origin="4217.35,3070.3" c_rotation="90" c_mirror="0" id="gge50" locked="0" layerid="3" c_shapetype="group" display="none"><path c_fontsize="4.5" c_fontfamily="" c_text="CAP-TH_BD6.3-P2.50-D1.0-FD" d="M 4213.8301 3067.23 L 4213.4201 3067.44 L 4213.0101 3067.85 L 4212.8101 3068.25 L 4212.8101 3069.07 L 4213.0101 3069.48 L 4213.4201 3069.89 L 4213.8301 3070.1 L 4214.4501 3070.3 L 4215.4701 3070.3 L 4216.0801 3070.1 L 4216.4901 3069.89 L 4216.9001 3069.48 L 4217.1001 3069.07 L 4217.1001 3068.25 L 4216.9001 3067.85 L 4216.4901 3067.44 L 4216.0801 3067.23 M 4212.8101 3064.25 L 4217.1001 3065.88 M 4212.8101 3064.25 L 4217.1001 3062.61 M 4215.6701 3065.27 L 4215.6701 3063.22 M 4212.8101 3061.26 L 4217.1001 3061.26 M 4212.8101 3061.26 L 4212.8101 3059.42 L 4213.0101 3058.8 L 4213.2201 3058.6 L 4213.6301 3058.4 L 4214.2401 3058.4 L 4214.6501 3058.6 L 4214.8501 3058.8 L 4215.0601 3059.42 L 4215.0601 3061.26 M 4215.2601 3057.05 L 4215.2601 3053.36 M 4212.8101 3050.58 L 4217.1001 3050.58 M 4212.8101 3052.01 L 4212.8101 3049.15 M 4212.8101 3047.8 L 4217.1001 3047.8 M 4212.8101 3044.94 L 4217.1001 3044.94 M 4214.8501 3047.8 L 4214.8501 3044.94 M 4218.5401 3043.59 L 4218.5401 3039.9 M 4212.8101 3038.55 L 4217.1001 3038.55 M 4212.8101 3038.55 L 4212.8101 3036.71 L 4213.0101 3036.1 L 4213.2201 3035.9 L 4213.6301 3035.69 L 4214.0401 3035.69 L 4214.4501 3035.9 L 4214.6501 3036.1 L 4214.8501 3036.71 M 4214.8501 3038.55 L 4214.8501 3036.71 L 4215.0601 3036.1 L 4215.2601 3035.9 L 4215.6701 3035.69 L 4216.2901 3035.69 L 4216.7001 3035.9 L 4216.9001 3036.1 L 4217.1001 3036.71 L 4217.1001 3038.55 M 4212.8101 3034.34 L 4217.1001 3034.34 M 4212.8101 3034.34 L 4212.8101 3032.91 L 4213.0101 3032.3 L 4213.4201 3031.89 L 4213.8301 3031.68 L 4214.4501 3031.48 L 4215.4701 3031.48 L 4216.0801 3031.68 L 4216.4901 3031.89 L 4216.9001 3032.3 L 4217.1001 3032.91 L 4217.1001 3034.34 M 4213.4201 3027.67 L 4213.0101 3027.88 L 4212.8101 3028.49 L 4212.8101 3028.9 L 4213.0101 3029.51 L 4213.6301 3029.92 L 4214.6501 3030.13 L 4215.6701 3030.13 L 4216.4901 3029.92 L 4216.9001 3029.51 L 4217.1001 3028.9 L 4217.1001 3028.7 L 4216.9001 3028.08 L 4216.4901 3027.67 L 4215.8801 3027.47 L 4215.6701 3027.47 L 4215.0601 3027.67 L 4214.6501 3028.08 L 4214.4501 3028.7 L 4214.4501 3028.9 L 4214.6501 3029.51 L 4215.0601 3029.92 L 4215.6701 3030.13 M 4216.0801 3025.91 L 4216.2901 3026.12 L 4216.4901 3025.91 L 4216.2901 3025.71 L 4216.0801 3025.91 M 4212.8101 3023.95 L 4212.8101 3021.7 L 4214.4501 3022.93 L 4214.4501 3022.31 L 4214.6501 3021.9 L 4214.8501 3021.7 L 4215.4701 3021.5 L 4215.8801 3021.5 L 4216.4901 3021.7 L 4216.9001 3022.11 L 4217.1001 3022.72 L 4217.1001 3023.34 L 4216.9001 3023.95 L 4216.7001 3024.15 L 4216.2901 3024.36 M 4215.2601 3020.15 L 4215.2601 3016.46 M 4212.8101 3015.11 L 4217.1001 3015.11 M 4212.8101 3015.11 L 4212.8101 3013.27 L 4213.0101 3012.66 L 4213.2201 3012.45 L 4213.6301 3012.25 L 4214.2401 3012.25 L 4214.6501 3012.45 L 4214.8501 3012.66 L 4215.0601 3013.27 L 4215.0601 3015.11 M 4213.8301 3010.7 L 4213.6301 3010.7 L 4213.2201 3010.49 L 4213.0101 3010.29 L 4212.8101 3009.88 L 4212.8101 3009.06 L 4213.0101 3008.65 L 4213.2201 3008.45 L 4213.6301 3008.24 L 4214.0401 3008.24 L 4214.4501 3008.45 L 4215.0601 3008.85 L 4217.1001 3010.9 L 4217.1001 3008.04 M 4216.0801 3006.48 L 4216.2901 3006.69 L 4216.4901 3006.48 L 4216.2901 3006.28 L 4216.0801 3006.48 M 4212.8101 3002.47 L 4212.8101 3004.52 L 4214.6501 3004.72 L 4214.4501 3004.52 L 4214.2401 3003.9 L 4214.2401 3003.29 L 4214.4501 3002.68 L 4214.8501 3002.27 L 4215.4701 3002.06 L 4215.8801 3002.06 L 4216.4901 3002.27 L 4216.9001 3002.68 L 4217.1001 3003.29 L 4217.1001 3003.9 L 4216.9001 3004.52 L 4216.7001 3004.72 L 4216.2901 3004.93 M 4212.8101 2999.49 L 4213.0101 3000.1 L 4213.6301 3000.51 L 4214.6501 3000.71 L 4215.2601 3000.71 L 4216.2901 3000.51 L 4216.9001 3000.1 L 4217.1001 2999.49 L 4217.1001 2999.08 L 4216.9001 2998.46 L 4216.2901 2998.05 L 4215.2601 2997.85 L 4214.6501 2997.85 L 4213.6301 2998.05 L 4213.0101 2998.46 L 4212.8101 2999.08 L 4212.8101 2999.49 M 4215.2601 2996.5 L 4215.2601 2992.82 M 4212.8101 2991.47 L 4217.1001 2991.47 M 4212.8101 2991.47 L 4212.8101 2990.04 L 4213.0101 2989.42 L 4213.4201 2989.01 L 4213.8301 2988.81 L 4214.4501 2988.6 L 4215.4701 2988.6 L 4216.0801 2988.81 L 4216.4901 2989.01 L 4216.9001 2989.42 L 4217.1001 2990.04 L 4217.1001 2991.47 M 4213.6301 2987.25 L 4213.4201 2986.85 L 4212.8101 2986.23 L 4217.1001 2986.23 M 4216.0801 2984.68 L 4216.2901 2984.88 L 4216.4901 2984.68 L 4216.2901 2984.47 L 4216.0801 2984.68 M 4212.8101 2981.9 L 4213.0101 2982.51 L 4213.6301 2982.92 L 4214.6501 2983.12 L 4215.2601 2983.12 L 4216.2901 2982.92 L 4216.9001 2982.51 L 4217.1001 2981.9 L 4217.1001 2981.49 L 4216.9001 2980.87 L 4216.2901 2980.46 L 4215.2601 2980.26 L 4214.6501 2980.26 L 4213.6301 2980.46 L 4213.0101 2980.87 L 4212.8101 2981.49 L 4212.8101 2981.9 M 4215.2601 2978.91 L 4215.2601 2975.23 M 4212.8101 2973.88 L 4217.1001 2973.88 M 4212.8101 2973.88 L 4212.8101 2971.22 M 4214.8501 2973.88 L 4214.8501 2972.24 M 4212.8101 2969.87 L 4217.1001 2969.87 M 4212.8101 2969.87 L 4212.8101 2968.44 L 4213.0101 2967.82 L 4213.4201 2967.41 L 4213.8301 2967.21 L 4214.4501 2967 L 4215.4701 2967 L 4216.0801 2967.21 L 4216.4901 2967.41 L 4216.9001 2967.82 L 4217.1001 2968.44 L 4217.1001 2969.87" fill="none"  stroke-width="0.6" c_note="note_name" /></g><g c_partid="part_pcbtext" c_etype="" c_origin="4207,2967" c_rotation="270" c_mirror="0" id="gge52" locked="0" layerid="3" c_shapetype="group" ><path c_fontsize="4.5" c_fontfamily="" c_text="C1" d="M 4210.52 2970.07L4210.93 2969.86 L4211.34 2969.45 L4211.54 2969.05 L4211.54 2968.23 L4211.34 2967.82 L4210.93 2967.41 L4210.52 2967.2 L4209.9 2967 L4208.88 2967 L4208.27 2967.2 L4207.86 2967.41 L4207.45 2967.82 L4207.25 2968.23 L4207.25 2969.05 L4207.45 2969.45 L4207.86 2969.86 L4208.27 2970.07 M 4210.72 2971.42L4210.93 2971.83 L4211.54 2972.44 L4207.25 2972.44 " fill="none"  stroke-width="0.5984" c_note="note_pre" /></g><g c_partid="part_pcbtext" c_etype="" c_origin="4262.13,3011.29" c_rotation="0" c_mirror="0" id="gge219" locked="0" layerid="3" c_shapetype="group" display="none"><path c_fontsize="4.5" c_fontfamily="" c_text="BOOST5V" d="M 4262.1299 3006.75 L 4262.1299 3011.04 M 4262.1299 3006.75 L 4263.9699 3006.75 L 4264.5799 3006.95 L 4264.7899 3007.16 L 4264.9899 3007.57 L 4264.9899 3007.98 L 4264.7899 3008.39 L 4264.5799 3008.59 L 4263.9699 3008.79 M 4262.1299 3008.79 L 4263.9699 3008.79 L 4264.5799 3009 L 4264.7899 3009.2 L 4264.9899 3009.61 L 4264.9899 3010.23 L 4264.7899 3010.64 L 4264.5799 3010.84 L 4263.9699 3011.04 L 4262.1299 3011.04 M 4267.5699 3006.75 L 4267.1599 3006.95 L 4266.7499 3007.36 L 4266.5499 3007.77 L 4266.3399 3008.39 L 4266.3399 3009.41 L 4266.5499 3010.02 L 4266.7499 3010.43 L 4267.1599 3010.84 L 4267.5699 3011.04 L 4268.3899 3011.04 L 4268.7999 3010.84 L 4269.2099 3010.43 L 4269.4099 3010.02 L 4269.6199 3009.41 L 4269.6199 3008.39 L 4269.4099 3007.77 L 4269.2099 3007.36 L 4268.7999 3006.95 L 4268.3899 3006.75 L 4267.5699 3006.75 M 4272.1899 3006.75 L 4271.7799 3006.95 L 4271.3799 3007.36 L 4271.1699 3007.77 L 4270.9699 3008.39 L 4270.9699 3009.41 L 4271.1699 3010.02 L 4271.3799 3010.43 L 4271.7799 3010.84 L 4272.1899 3011.04 L 4273.0099 3011.04 L 4273.4199 3010.84 L 4273.8299 3010.43 L 4274.0299 3010.02 L 4274.2399 3009.41 L 4274.2399 3008.39 L 4274.0299 3007.77 L 4273.8299 3007.36 L 4273.4199 3006.95 L 4273.0099 3006.75 L 4272.1899 3006.75 M 4278.4499 3007.36 L 4278.0399 3006.95 L 4277.4299 3006.75 L 4276.6099 3006.75 L 4275.9999 3006.95 L 4275.5899 3007.36 L 4275.5899 3007.77 L 4275.7899 3008.18 L 4275.9999 3008.39 L 4276.4099 3008.59 L 4277.6299 3009 L 4278.0399 3009.2 L 4278.2499 3009.41 L 4278.4499 3009.82 L 4278.4499 3010.43 L 4278.0399 3010.84 L 4277.4299 3011.04 L 4276.6099 3011.04 L 4275.9999 3010.84 L 4275.5899 3010.43 M 4281.2299 3006.75 L 4281.2299 3011.04 M 4279.7999 3006.75 L 4282.6699 3006.75 M 4286.4699 3006.75 L 4284.4299 3006.75 L 4284.2199 3008.59 L 4284.4299 3008.39 L 4285.0399 3008.18 L 4285.6499 3008.18 L 4286.2699 3008.39 L 4286.6799 3008.79 L 4286.8799 3009.41 L 4286.8799 3009.82 L 4286.6799 3010.43 L 4286.2699 3010.84 L 4285.6499 3011.04 L 4285.0399 3011.04 L 4284.4299 3010.84 L 4284.2199 3010.64 L 4284.0199 3010.23 M 4288.2299 3006.75 L 4289.8699 3011.04 M 4291.4999 3006.75 L 4289.8699 3011.04" fill="none"  stroke-width="0.6" c_note="note_name" /></g><g c_partid="part_pcbtext" c_etype="" c_origin="4262.5,2923" c_rotation="0" c_mirror="0" id="gge221" locked="0" layerid="3" c_shapetype="group" ><path c_fontsize="4.5" c_fontfamily="" c_text="DC-DCBOOST" d="M 4262.5 2918.46 L 4262.5 2922.75 M 4262.5 2918.46 L 4263.93 2918.46 L 4264.55 2918.66 L 4264.95 2919.07 L 4265.16 2919.48 L 4265.36 2920.1 L 4265.36 2921.12 L 4265.16 2921.73 L 4264.95 2922.14 L 4264.55 2922.55 L 4263.93 2922.75 L 4262.5 2922.75 M 4269.78 2919.48 L 4269.58 2919.07 L 4269.17 2918.66 L 4268.76 2918.46 L 4267.94 2918.46 L 4267.53 2918.66 L 4267.12 2919.07 L 4266.92 2919.48 L 4266.71 2920.1 L 4266.71 2921.12 L 4266.92 2921.73 L 4267.12 2922.14 L 4267.53 2922.55 L 4267.94 2922.75 L 4268.76 2922.75 L 4269.17 2922.55 L 4269.58 2922.14 L 4269.78 2921.73 M 4271.13 2920.91 L 4274.81 2920.91 M 4276.16 2918.46 L 4276.16 2922.75 M 4276.16 2918.46 L 4277.6 2918.46 L 4278.21 2918.66 L 4278.62 2919.07 L 4278.82 2919.48 L 4279.03 2920.1 L 4279.03 2921.12 L 4278.82 2921.73 L 4278.62 2922.14 L 4278.21 2922.55 L 4277.6 2922.75 L 4276.16 2922.75 M 4283.45 2919.48 L 4283.24 2919.07 L 4282.83 2918.66 L 4282.42 2918.46 L 4281.6 2918.46 L 4281.2 2918.66 L 4280.79 2919.07 L 4280.58 2919.48 L 4280.38 2920.1 L 4280.38 2921.12 L 4280.58 2921.73 L 4280.79 2922.14 L 4281.2 2922.55 L 4281.6 2922.75 L 4282.42 2922.75 L 4282.83 2922.55 L 4283.24 2922.14 L 4283.45 2921.73 M 4284.8 2918.46 L 4284.8 2922.75 M 4284.8 2918.46 L 4286.64 2918.46 L 4287.25 2918.66 L 4287.45 2918.87 L 4287.66 2919.28 L 4287.66 2919.69 L 4287.45 2920.1 L 4287.25 2920.3 L 4286.64 2920.5 M 4284.8 2920.5 L 4286.64 2920.5 L 4287.25 2920.71 L 4287.45 2920.91 L 4287.66 2921.32 L 4287.66 2921.94 L 4287.45 2922.35 L 4287.25 2922.55 L 4286.64 2922.75 L 4284.8 2922.75 M 4290.24 2918.46 L 4289.83 2918.66 L 4289.42 2919.07 L 4289.21 2919.48 L 4289.01 2920.1 L 4289.01 2921.12 L 4289.21 2921.73 L 4289.42 2922.14 L 4289.83 2922.55 L 4290.24 2922.75 L 4291.05 2922.75 L 4291.46 2922.55 L 4291.87 2922.14 L 4292.08 2921.73 L 4292.28 2921.12 L 4292.28 2920.1 L 4292.08 2919.48 L 4291.87 2919.07 L 4291.46 2918.66 L 4291.05 2918.46 L 4290.24 2918.46 M 4294.86 2918.46 L 4294.45 2918.66 L 4294.04 2919.07 L 4293.84 2919.48 L 4293.63 2920.1 L 4293.63 2921.12 L 4293.84 2921.73 L 4294.04 2922.14 L 4294.45 2922.55 L 4294.86 2922.75 L 4295.68 2922.75 L 4296.09 2922.55 L 4296.5 2922.14 L 4296.7 2921.73 L 4296.9 2921.12 L 4296.9 2920.1 L 4296.7 2919.48 L 4296.5 2919.07 L 4296.09 2918.66 L 4295.68 2918.46 L 4294.86 2918.46 M 4301.12 2919.07 L 4300.71 2918.66 L 4300.1 2918.46 L 4299.28 2918.46 L 4298.66 2918.66 L 4298.25 2919.07 L 4298.25 2919.48 L 4298.46 2919.89 L 4298.66 2920.1 L 4299.07 2920.3 L 4300.3 2920.71 L 4300.71 2920.91 L 4300.91 2921.12 L 4301.12 2921.53 L 4301.12 2922.14 L 4300.71 2922.55 L 4300.1 2922.75 L 4299.28 2922.75 L 4298.66 2922.55 L 4298.25 2922.14 M 4303.9 2918.46 L 4303.9 2922.75 M 4302.47 2918.46 L 4305.33 2918.46" fill="none"  stroke-width="0.6" c_note="note_pre" /></g><g c_partid="part_pcbtext" c_etype="pinpart" c_origin="4303,2962" c_rotation="180" c_mirror="0" id="gge264" locked="0" layerid="3" c_shapetype="group" ><path c_fontsize="8" c_fontfamily="" c_text="BOOT 5V" d="M 4303 2970.07 L 4303 2962.44 M 4303 2970.07 L 4299.73 2970.07 L 4298.64 2969.71 L 4298.27 2969.35 L 4297.91 2968.62 L 4297.91 2967.89 L 4298.27 2967.16 L 4298.64 2966.8 L 4299.73 2966.44 M 4303 2966.44 L 4299.73 2966.44 L 4298.64 2966.07 L 4298.27 2965.71 L 4297.91 2964.98 L 4297.91 2963.89 L 4298.27 2963.16 L 4298.64 2962.8 L 4299.73 2962.44 L 4303 2962.44 M 4293.33 2970.07 L 4294.05 2969.71 L 4294.78 2968.98 L 4295.15 2968.25 L 4295.51 2967.16 L 4295.51 2965.35 L 4295.15 2964.25 L 4294.78 2963.53 L 4294.05 2962.8 L 4293.33 2962.44 L 4291.87 2962.44 L 4291.15 2962.8 L 4290.42 2963.53 L 4290.05 2964.25 L 4289.69 2965.35 L 4289.69 2967.16 L 4290.05 2968.25 L 4290.42 2968.98 L 4291.15 2969.71 L 4291.87 2970.07 L 4293.33 2970.07 M 4285.11 2970.07 L 4285.84 2969.71 L 4286.56 2968.98 L 4286.93 2968.25 L 4287.29 2967.16 L 4287.29 2965.35 L 4286.93 2964.25 L 4286.56 2963.53 L 4285.84 2962.8 L 4285.11 2962.44 L 4283.65 2962.44 L 4282.93 2962.8 L 4282.2 2963.53 L 4281.84 2964.25 L 4281.47 2965.35 L 4281.47 2967.16 L 4281.84 2968.25 L 4282.2 2968.98 L 4282.93 2969.71 L 4283.65 2970.07 L 4285.11 2970.07 M 4276.53 2970.07 L 4276.53 2962.44 M 4279.07 2970.07 L 4273.98 2970.07 M 4261.62 2970.07 L 4265.25 2970.07 L 4265.62 2966.8 L 4265.25 2967.16 L 4264.16 2967.53 L 4263.07 2967.53 L 4261.98 2967.16 L 4261.25 2966.44 L 4260.89 2965.35 L 4260.89 2964.62 L 4261.25 2963.53 L 4261.98 2962.8 L 4263.07 2962.44 L 4264.16 2962.44 L 4265.25 2962.8 L 4265.62 2963.16 L 4265.98 2963.89 M 4258.49 2970.07 L 4255.58 2962.44 M 4252.67 2970.07 L 4255.58 2962.44" fill="none"  stroke-width="0.8"  /></g><g c_partid="part_pcbtext" c_etype="pinpart" c_origin="4287.5,2934.5" c_rotation="180" c_mirror="0" id="gge266" locked="0" layerid="3" c_shapetype="group" ><path c_fontsize="8" c_fontfamily="" c_text="IN+" d="M 4287.5 2942.57 L 4287.5 2934.94 M 4285.1 2942.57 L 4285.1 2934.94 M 4285.1 2942.57 L 4280.01 2934.94 M 4280.01 2942.57 L 4280.01 2934.94 M 4274.34 2941.48 L 4274.34 2934.94 M 4277.61 2938.21 L 4271.06 2938.21" fill="none"  stroke-width="0.8"  /></g><g c_partid="part_pcbtext" c_etype="pinpart" c_origin="4287.5,2984.5" c_rotation="180" c_mirror="0" id="gge268" locked="0" layerid="3" c_shapetype="group" ><path c_fontsize="8" c_fontfamily="" c_text="IN-" d="M 4287.5 2992.57 L 4287.5 2984.94 M 4285.1 2992.57 L 4285.1 2984.94 M 4285.1 2992.57 L 4280.01 2984.94 M 4280.01 2992.57 L 4280.01 2984.94 M 4277.61 2988.21 L 4271.06 2988.21" fill="none"  stroke-width="0.8"  /></g><circle cx="4193" cy="2967" r="12.4" stroke-width="1" fill="none" layerid="3" id="gge56" locked="0"  /><path d="M 4202 2975.5 A 12.125 12.125 0 0 1 4184 2975.5 Z " stroke-width="0"   net="" type="solid" layerid="3" id="gge57" locked="0" c_teardrop="" c_targetpad="" c_targetwire="" /><polyline points="4069 2915 4356.5 2915 4357 3011.5 4070 3011 4069.5 2915.5" stroke-width="1"  stroke-linecap="round" fill="none" layerid="10" net="" id="gge5" locked="0" /></svg>